<svg xmlns="http://www.w3.org/2000/svg" viewBox="0 0 178.47 174.12"><defs><style>.cls-1{fill:#e8505b;}.cls-2{fill:#54b2ab;}.cls-3{fill:#f9d56e;}.cls-4{fill:#f3ecc2;}.cls-5{font-size:9px;}.cls-5,.cls-6{font-family:Superclarendon-Regular, Superclarendon;}.cls-6{font-size:8px;}</style></defs><g id="Capa_1" data-name="Capa 1"><path class="cls-1" d="M147.19,84.22c-1.74-.77-2.54-2.56-4.11-3.6-4.84-3.22-13.48-2.55-16.46.43a23.77,23.77,0,0,0-7.45,8.2,110.86,110.86,0,0,0-9.69,22.91,228.56,228.56,0,0,0-6.26,25c-1.07,5.56-2.18,11.12-3.28,16.72-.49,0-.48-.52-.53-.86a281.28,281.28,0,0,0-6-29c-2.67-10.33-5.76-20.59-10.55-30.22a46.18,46.18,0,0,0-7.11-10.76A12.45,12.45,0,0,0,72.9,81c-3.46-2.87-7.49-2.78-11.6-2.23-3.29.45-5.7,2.5-8.18,4.42,2.82-7.37,8-12.1,15.76-13.72,9.61-2,18.44.35,26.47,5.5,3.37,2.17,5.67,2.09,9-.06a36,36,0,0,1,22-6C136.74,69.49,143.39,74.85,147.19,84.22Z" transform="translate(-10.81 -10.52)"/><path class="cls-2" d="M126.62,81.05c3-3,11.62-3.65,16.46-.43,1.57,1,2.37,2.83,4.11,3.6a41.59,41.59,0,0,1,3.49,11.49c.2,1.34.68,1.39,1.7,1.42a44.67,44.67,0,0,1,11.27,1.63c9.39,2.78,15.29,9.37,19.88,18.18a51.27,51.27,0,0,0-13.89-5.71c-12-2.7-22.56.74-32.23,7.75a72.74,72.74,0,0,0-8.24,6.94c-.54.52-.94,1.32-2.13,1.25a61.69,61.69,0,0,0,5.31-15c1.91-8.61,2.93-17.27.54-26C132.29,84,131.43,82,129.1,81a.89.89,0,0,0-1.27-.21Z" transform="translate(-10.81 -10.52)"/><path class="cls-3" d="M53.12,83.2c2.48-1.92,4.89-4,8.18-4.42,4.11-.55,8.14-.64,11.6,2.23-3-.19-4.11.44-5.42,3.17A19.46,19.46,0,0,0,65.73,91a65.43,65.43,0,0,0,.9,18.37A69.82,69.82,0,0,0,72,126c.26.55.73,1.1.44,1.9-5.46-5.51-11.3-10.39-18.29-13.77-11.14-5.36-22.18-4.91-33.22.29-1.47.7-2.78,1.79-4.47,2l0,0A35.25,35.25,0,0,1,27,103.36c5.88-4.58,12.64-5.78,19.71-6.21,1.32-.08,2-.33,2.27-1.83A45.83,45.83,0,0,1,52.68,83.7c.16-.17.31-.35.46-.52Z" transform="translate(-10.81 -10.52)"/><path class="cls-4" d="M99.79,70.68a12.29,12.29,0,1,1,12.34-12.16C112,65,106.81,70.84,99.79,70.68Z" transform="translate(-10.81 -10.52)"/><path class="cls-3" d="M37,93.14A9.29,9.29,0,1,1,46.25,84,9.26,9.26,0,0,1,37,93.14Z" transform="translate(-10.81 -10.52)"/><path class="cls-2" d="M171.83,83.82a9.19,9.19,0,0,1-9.19,9.3,9.25,9.25,0,1,1,0-18.5A9.18,9.18,0,0,1,171.83,83.82Z" transform="translate(-10.81 -10.52)"/></g><g id="Capa_3" data-name="Capa 3"><text class="cls-5" transform="translate(7.75 82.78) rotate(-83.05)">F</text><text class="cls-5" transform="translate(8.53 76.32) rotate(-78.46)">u</text><text class="cls-5" transform="translate(9.82 69.92) rotate(-73.74)">n</text><text class="cls-5" transform="translate(11.64 63.66) rotate(-69.32)">d</text><text class="cls-5" transform="translate(13.87 57.76) rotate(-64.97)">a</text><text class="cls-5" transform="matrix(0.48, -0.87, 0.87, 0.48, 16.44, 52.29)">c</text><text class="cls-5" transform="translate(18.96 47.78) rotate(-58.03)">i</text><text class="cls-5" transform="translate(20.71 44.91) rotate(-54.9)">รณ</text><text class="cls-5" transform="matrix(0.64, -0.77, 0.77, 0.64, 23.88, 40.34)">n</text><text class="cls-5" transform="matrix(0.68, -0.73, 0.73, 0.68, 28.27, 35.09)"> </text><text class="cls-5" transform="translate(30.25 32.84) rotate(-43.38)">ร</text><text class="cls-5" transform="matrix(0.78, -0.62, 0.62, 0.78, 35.91, 27.51)">n</text><text class="cls-5" transform="matrix(0.83, -0.56, 0.56, 0.83, 41.09, 23.41)">g</text><text class="cls-5" transform="translate(46.68 19.71) rotate(-29.49)">e</text><text class="cls-5" transform="matrix(0.9, -0.44, 0.44, 0.9, 51.37, 17.08)">l</text><text class="cls-5" transform="matrix(0.92, -0.4, 0.4, 0.92, 54.38, 15.55)">e</text><text class="cls-5" transform="translate(59.33 13.43) rotate(-19.71)">s</text><text class="cls-5" transform="matrix(0.96, -0.29, 0.29, 0.96, 63.87, 11.82)"> </text><text class="cls-5" transform="translate(66.75 10.87) rotate(-13.29)">T</text><text class="cls-5" transform="matrix(0.99, -0.17, 0.17, 0.99, 73.84, 9.26)">i</text><text class="cls-5" transform="translate(77.19 8.66) rotate(-6.45)">e</text><text class="cls-5" transform="translate(82.52 8.06) rotate(-2.77)">r</text><text class="cls-5" transform="translate(87.74 7.8) rotate(0.93)">r</text><text class="cls-5" transform="translate(92.97 7.86) rotate(4.74)">a</text><text class="cls-5" transform="matrix(0.99, 0.14, -0.14, 0.99, 98.97, 8.4)"> </text><text class="cls-5" transform="translate(101.99 8.77) rotate(11.21)">d</text><text class="cls-5" transform="translate(108.18 10.01) rotate(15.32)">e</text><text class="cls-5" transform="translate(113.37 11.46) rotate(18.3)"> </text><text class="cls-5" transform="translate(116.25 12.4) rotate(20.71)">I</text><text class="cls-5" transform="translate(119.77 13.68) rotate(24.44)">n</text><text class="cls-5" transform="translate(125.96 16.53) rotate(28.32)">f</text><text class="cls-5" transform="matrix(0.85, 0.53, -0.53, 0.85, 129.71, 18.52)">a</text><text class="cls-5" transform="translate(134.8 21.67) rotate(36.41)">n</text><text class="cls-5" transform="translate(140.15 25.66) rotate(40)">t</text><text class="cls-5" transform="matrix(0.73, 0.68, -0.68, 0.73, 143.06, 28.07)">e</text><text class="cls-5" transform="matrix(0.69, 0.73, -0.73, 0.69, 146.98, 31.76)">s</text><text class="cls-5" transform="translate(150.27 35.29) rotate(49.48)"> </text><text class="cls-5" transform="matrix(0.61, 0.79, -0.79, 0.61, 152.28, 37.57)">y</text><text class="cls-5" transform="translate(155.9 42.37) rotate(55.81)"> </text><text class="cls-5" transform="matrix(0.51, 0.86, -0.86, 0.51, 157.64, 44.79)">A</text><text class="cls-5" transform="translate(161.57 51.51) rotate(64.71)">n</text><text class="cls-5" transform="translate(164.46 57.7) rotate(68.94)">c</text><text class="cls-5" transform="matrix(0.31, 0.95, -0.95, 0.31, 166.3, 62.53)">i</text><text class="cls-5" transform="matrix(0.25, 0.97, -0.97, 0.25, 167.39, 65.75)">a</text><text class="cls-5" transform="translate(168.93 71.55) rotate(79.83)">n</text><text class="cls-5" transform="translate(170.12 78.26) rotate(84.16)">o</text></g><g id="Capa_4" data-name="Capa 4"><text class="cls-6" transform="translate(14.52 120.85) rotate(64.18)">M</text><text class="cls-6" transform="matrix(0.5, 0.87, -0.87, 0.5, 18.4, 128.63)">i</text><text class="cls-6" transform="translate(20.02 131.46) rotate(56.97)">e</text><text class="cls-6" transform="matrix(0.6, 0.8, -0.8, 0.6, 22.81, 135.76)">n</text><text class="cls-6" transform="translate(26.59 140.69) rotate(49.46)">t</text><text class="cls-6" transform="translate(28.94 143.46) rotate(46.45)">r</text><text class="cls-6" transform="matrix(0.73, 0.68, -0.68, 0.73, 32.37, 147.08)">a</text><text class="cls-6" transform="matrix(0.78, 0.63, -0.63, 0.78, 36.55, 150.9)">s</text><text class="cls-6" transform="matrix(0.8, 0.59, -0.59, 0.8, 40.09, 153.74)"> </text><text class="cls-6" transform="matrix(0.84, 0.55, -0.55, 0.84, 42.45, 155.54)">h</text><text class="cls-6" transform="translate(47.78 159) rotate(28.9)">a</text><text class="cls-6" transform="matrix(0.9, 0.43, -0.43, 0.9, 52.28, 161.5)">y</text><text class="cls-6" transform="translate(57.03 163.74) rotate(21.5)">a</text><text class="cls-6" transform="translate(62.3 165.77) rotate(18.43)"> </text><text class="cls-6" transform="matrix(0.96, 0.27, -0.27, 0.96, 65.07, 166.72)">e</text><text class="cls-6" transform="translate(69.96 168.07) rotate(12.15)">s</text><text class="cls-6" transform="matrix(0.99, 0.15, -0.15, 0.99, 74.45, 169.04)">p</text><text class="cls-6" transform="matrix(1, 0.08, -0.08, 1, 80.1, 169.87)">e</text><text class="cls-6" transform="matrix(1, 0.02, -0.02, 1, 85.17, 170.27)">r</text><text class="cls-6" transform="translate(90.11 170.38) rotate(-2.54)">a</text><text class="cls-6" transform="translate(95.82 170.13) rotate(-6.82)">n</text><text class="cls-6" transform="matrix(0.98, -0.19, 0.19, 0.98, 102.19, 169.33)">z</text><text class="cls-6" transform="matrix(0.97, -0.25, 0.25, 0.97, 107.09, 168.4)">a</text><text class="cls-6" transform="matrix(0.95, -0.3, 0.3, 0.95, 112.54, 166.93)"> </text><text class="cls-6" transform="translate(115.31 166.05) rotate(-20.07)">t</text><text class="cls-6" transform="matrix(0.92, -0.39, 0.39, 0.92, 118.75, 164.81)">o</text><text class="cls-6" transform="translate(123.59 162.73) rotate(-27.23)">d</text><text class="cls-6" transform="matrix(0.86, -0.52, 0.52, 0.86, 128.89, 159.98)">o</text><text class="cls-6" transform="matrix(0.83, -0.56, 0.56, 0.83, 133.33, 157.25)"> </text><text class="cls-6" transform="translate(135.77 155.62) rotate(-36.92)">e</text><text class="cls-6" transform="matrix(0.76, -0.65, 0.65, 0.76, 139.82, 152.57)">s</text><text class="cls-6" transform="matrix(0.73, -0.68, 0.68, 0.73, 143.26, 149.62)"> </text><text class="cls-6" transform="matrix(0.69, -0.72, 0.72, 0.69, 145.44, 147.63)">p</text><text class="cls-6" transform="matrix(0.64, -0.76, 0.76, 0.64, 149.4, 143.51)">o</text><text class="cls-6" transform="matrix(0.6, -0.8, 0.8, 0.6, 152.77, 139.49)">s</text><text class="cls-6" transform="translate(155.47 135.82) rotate(-56.09)">i</text><text class="cls-6" transform="translate(157.33 133.11) rotate(-59.21)">b</text><text class="cls-6" transform="translate(160.14 128.31) rotate(-62.36)">l</text><text class="cls-6" transform="translate(161.68 125.41) rotate(-65.32)">e</text><text x="-10.81" y="-10.52"/></g></svg>